<?xml version="1.0" encoding="utf-8"?>
<!-- Generator: Adobe Illustrator 23.0.4, SVG Export Plug-In . SVG Version: 6.00 Build 0)  -->
<svg version="1.1" id="Layer_1" xmlns="http://www.w3.org/2000/svg" xmlns:xlink="http://www.w3.org/1999/xlink" x="0px" y="0px"
	 viewBox="0 0 350.6 100" style="enable-background:new 0 0 350.6 100;" xml:space="preserve">
<style type="text/css">
	.st0{fill:#A5673F;}
	.st1{fill:#603018;}
	.st2{font-family:'Lato-Bold';}
	.st3{font-size:46.6554px;}
	.st4{letter-spacing:2;}
</style>
<title>croissant</title>
<path class="st0" d="M54.5,46.1c1-5.8,3.7-11.2,7.9-15.4L38.8,4c-17,7.4-28.6,23.6-30,42.2H54.5z"/>
<path class="st0" d="M63.2,69.4c-4.4-4.2-7.4-9.6-8.6-15.6H8.8c1.5,18.7,13.3,35.1,30.7,42.3L63.2,69.4z"/>
<path class="st0" d="M48.2,99.2c13.6,2.5,27.5-1.3,38-10.2c7.9-6.6,5.9-11.9-4.4-11.8c-0.3,0-0.7,0-1,0c-4.6-0.2-9.2-1.6-13.1-4.2
	L48.2,99.2z"/>
<path class="st0" d="M66.9,27c4.4-2.7,9.4-4.1,14.5-4h0.3c10.6,0,12.7-5.2,4.5-12c-10.6-9.2-25-13-38.7-10.1L66.9,27z"/>
<text transform="matrix(1 0 0 1 64.6748 67.2169)" class="st1 st2 st3 st4">CROISSANT</text>
<image style="display:none;overflow:visible;" width="134" height="40" xlink:href="../croissant logo.png"  transform="matrix(2.5259 0 0 2.5259 8.3226 0)">
</image>
</svg>
